HIERARCHY
ROOT Hips
{
  OFFSET 1.44925e-005 102.336 -0.101585
  CHANNELS 6 Xposition Yposition Zposition Zrotation Xrotation Yrotation
  JOINT LeftUpLeg
  {
    OFFSET 8.9458 -8.66707 0.101652
    CHANNELS 3 Zrotation Xrotation Yrotation
    JOINT LeftLeg
    {
      OFFSET 0 -44.4227 1.3727
      CHANNELS 3 Zrotation Xrotation Yrotation
      JOINT LeftFoot
      {
        OFFSET -0.253549 -42.0924 -1.46059
        CHANNELS 3 Zrotation Xrotation Yrotation
        JOINT LeftToes
        {
          OFFSET -0.04 -4.41509 8.4991
          CHANNELS 3 Zrotation Xrotation Yrotation
          End Site
          {
            OFFSET 0.08 -0.047448 9.77979
          }
        }
      }
    }
  }
  JOINT Spine
  {
    OFFSET 0 11.8905 0
    CHANNELS 3 Zrotation Xrotation Yrotation
    JOINT Spine1
    {
      OFFSET 0 25.6574 0.127663
      CHANNELS 3 Zrotation Xrotation Yrotation
      JOINT RightShoulder
      {
        OFFSET -8.99 -0.362252 -0.22
        CHANNELS 3 Zrotation Xrotation Yrotation
        JOINT RightArm
        {
          OFFSET -10.2827 -0.00338 0.322123
          CHANNELS 3 Zrotation Xrotation Yrotation
          JOINT RightForeArm
          {
            OFFSET -26.364 0.099144 -1.42434
            CHANNELS 3 Zrotation Xrotation Yrotation
            JOINT RightHand
            {
              OFFSET -22.0324 0.085362 1.02216
              CHANNELS 3 Zrotation Xrotation Yrotation
              End Site
              {
                OFFSET -13.3284 -0.6 1.50291
              }
            }
          }
        }
      }
      JOINT LeftShoulder1
      {
        OFFSET 8.99 -0.362252 -0.22
        CHANNELS 3 Zrotation Xrotation Yrotation
        JOINT LeftArm
        {
          OFFSET 10.2827 -0.00337999 0.322123
          CHANNELS 3 Zrotation Xrotation Yrotation
          JOINT LeftForeArm
          {
            OFFSET 26.2597 0.099144 -1.42434
            CHANNELS 3 Zrotation Xrotation Yrotation
            JOINT LeftHand
            {
              OFFSET 22.0902 0.085362 1.02216
              CHANNELS 3 Zrotation Xrotation Yrotation
              End Site
              {
                OFFSET 13.419 -0.6 1.50291
              }
            }
          }
        }
      }
      JOINT Head
      {
        OFFSET 0 8.73416 0.011341
        CHANNELS 3 Zrotation Xrotation Yrotation
        End Site
        {
          OFFSET -0.29 12.7742 2.51395
        }
      }
    }
  }
  JOINT RightUpLeg
  {
    OFFSET -8.9458 -8.66707 0.101652
    CHANNELS 3 Zrotation Xrotation Yrotation
    JOINT RightLeg
    {
      OFFSET 0 -44.4227 1.3727
      CHANNELS 3 Zrotation Xrotation Yrotation
      JOINT RightFoot
      {
        OFFSET 0.253549 -42.0924 -1.46059
        CHANNELS 3 Zrotation Xrotation Yrotation
        JOINT RightToes
        {
          OFFSET 0.04 -4.41509 8.4991
          CHANNELS 3 Zrotation Xrotation Yrotation
          End Site
          {
            OFFSET -0.08 -0.137448 9.77979
          }
        }
      }
    }
  }
}
MOTION
Frames:	19
Frame Time:	0.0333333
189.239 102.7 2.98422 -3.3412 -0.0672505 -86.459 0.412733 -2.62108 0.285043 1.76212 14.3556 13.4737 -4.22099 -11.7605 -0.103439 -1.37632e-009 8.75206e-006 -1.48048e-008 0.558042 10.5153 -0.255461 0.526931 -2.29398 -0.182573 36.3092 1.76332 0.121956 40.123 -13.8475 5.20341 6.69553 29.6867 12.5719 -13.5915 9.17818 1.09419 -43.628 3.55616 -3.57655 -29.346 -7.02675 -1.3283 -2.70128 31.7365 -17.8253 5.82328 9.61819 -0.917488 0.274833 -6.07781 -5.762 -0.0681724 0.0394297 -4.44573 1.29777 12.6772 -15.2966 2.03792 -13.8611 -0.0937482 0.0462048 0.000530889 0.662642 
189.207 102.695 2.94881 -3.32998 -0.0274692 -86.4659 0.453633 -2.65726 0.224508 1.80078 14.4384 13.5204 -4.2314 -11.7833 -0.103448 -1.37632e-009 8.75206e-006 -1.48048e-008 0.635933 10.3917 -0.263195 0.476397 -2.19578 -0.175995 36.3386 1.76332 0.121956 40.1622 -13.3772 5.23436 6.49764 29.3814 12.9464 -13.64 9.15627 1.2688 -43.6164 3.55545 -3.57655 -29.2804 -7.86328 -1.40409 -3.08721 32.5218 -17.1827 5.82328 9.61819 -0.917488 -0.118161 -6.34548 -6.02415 -0.0142666 0.0421861 -4.43485 1.32615 12.6819 -15.3048 2.03663 -13.8802 -0.093756 0.0462048 0.000530889 0.662642 
189.136 102.676 2.88365 -3.36893 0.0249082 -86.4368 0.499969 -2.66632 0.06402 1.87791 14.6121 13.6345 -4.20766 -11.8447 -0.103471 -1.37632e-009 8.75206e-006 -1.48048e-008 0.66524 10.2504 -0.288293 0.526358 -2.06526 -0.201864 36.4205 1.76332 0.121956 40.1937 -12.5282 5.25946 6.24341 28.5379 13.5671 -13.6799 9.15306 1.27659 -43.5836 3.55159 -3.57503 -29.1678 -9.35559 -1.42695 -3.78325 33.9201 -16.041 5.82328 9.61819 -0.917488 -0.672728 -7.06592 -6.48623 0.0809702 0.125159 -4.42891 1.35492 12.693 -15.3454 2.03175 -13.9413 -0.0937807 0.0462048 0.000530889 0.662642 
189.062 102.651 2.81885 -3.47466 0.0493529 -86.3321 0.531163 -2.62965 -0.116435 1.934 14.8292 13.7048 -4.17475 -11.9386 -0.103507 -1.37632e-009 8.75206e-006 -1.48048e-008 0.544483 10.1633 -0.314023 0.763122 -1.89415 -0.265185 36.5205 1.76332 0.120413 40.184 -11.7401 5.29426 6.06217 27.7039 14.0939 -13.435 9.16937 1.25838 -43.5317 3.5442 -3.56858 -29.1022 -10.674 -1.38703 -4.38693 35.3199 -15.0152 5.82328 9.61819 -0.917488 -0.864762 -7.67079 -6.76649 0.172288 0.297499 -4.42968 1.35122 12.6925 -15.4489 2.0268 -14.0239 -0.0938144 0.0462048 0.000530889 0.662642 
189.011 102.631 2.7685 -3.57338 0.048107 -86.2035 0.558043 -2.59923 -0.226305 1.94689 15.0117 13.683 -4.18071 -12.0291 -0.104342 -1.37632e-009 8.75206e-006 -1.48048e-008 0.431984 10.1501 -0.332535 0.945746 -1.78525 -0.313732 36.6273 1.76366 0.113096 40.1437 -11.1498 5.29885 5.85476 27.4638 14.4753 -12.7199 9.18319 1.5328 -43.447 3.53272 -3.55873 -29.1229 -11.4067 -1.30196 -4.66597 36.3514 -14.4571 5.82328 9.61819 -0.917488 -0.341528 -7.50655 -6.56356 0.234908 0.452762 -4.42659 1.33187 12.6839 -15.5772 2.01954 -14.0956 -0.0938438 0.0462048 0.000530889 0.662642 
188.986 102.622 2.72991 -3.59459 0.0401843 -86.1376 0.575452 -2.61045 -0.26987 1.94896 15.0951 13.6587 -4.21291 -12.0724 -0.107001 -1.37632e-009 8.75206e-006 -1.48048e-008 0.567363 10.2991 -0.370286 0.731571 -2.02965 -0.30474 36.8417 1.76658 0.101249 40.0431 -10.6985 5.15368 5.58606 27.6979 14.7822 -11.8464 9.20246 1.88301 -43.2442 3.50625 -3.53695 -29.221 -11.5877 -1.04993 -4.66126 36.7709 -14.3652 5.82328 9.61819 -0.917488 0.607934 -6.6639 -6.09426 0.261659 0.491502 -4.4232 1.32844 12.6976 -15.649 2.01907 -14.1511 -0.0938667 0.0462048 0.000530889 0.662642 
188.978 102.621 2.69548 -3.55889 0.0275457 -86.1326 0.573386 -2.64021 -0.296563 1.96062 15.0859 13.6837 -4.22594 -12.0577 -0.108539 -1.37632e-009 8.75206e-006 -1.48048e-008 0.911714 10.624 -0.445115 0.183296 -2.6502 -0.268598 37.2157 1.775 0.0859779 39.8661 -10.4675 4.88773 5.41274 27.975 14.9359 -11.3232 9.22862 1.96193 -42.8823 3.45949 -3.49846 -29.4021 -11.4162 -0.596748 -4.54721 36.5524 -14.5361 5.82328 9.61819 -0.917488 1.30431 -5.8964 -5.82215 0.266015 0.440885 -4.41773 1.33171 12.7374 -15.666 2.04368 -14.1936 -0.0938843 0.0462048 0.000530889 0.662642 
188.989 102.623 2.66113 -3.53612 0.00407163 -86.1033 0.569475 -2.65291 -0.297927 1.96118 15.0386 13.6581 -4.21572 -12.0113 -0.109698 -1.37632e-009 8.75206e-006 -1.48048e-008 1.11957 10.9022 -0.515208 -0.162532 -3.15111 -0.271349 37.5284 1.77943 0.0734505 39.7425 -10.6561 4.74574 5.4255 28.3622 14.7991 -11.1789 9.23617 1.98187 -42.5654 3.41948 -3.46606 -29.6118 -11.1017 -0.199793 -4.40426 36.0414 -14.8064 5.82328 9.61819 -0.917488 1.49874 -5.68043 -5.79811 0.271144 0.401981 -4.40336 1.3177 12.76 -15.7176 2.08399 -14.208 -0.0938902 0.0462048 0.000530889 0.662642 
189.019 102.626 2.62494 -3.55289 -0.0245224 -86.0032 0.58434 -2.6439 -0.254025 1.94121 14.9892 13.507 -4.21396 -11.9602 -0.110555 -1.37632e-009 8.75206e-006 -1.48048e-008 0.972983 10.8956 -0.523583 0.0605205 -3.08249 -0.324691 37.4941 1.77679 0.0742179 39.8353 -11.2138 4.86288 5.51457 29.0526 14.4587 -11.1302 9.2231 2.16476 -42.5951 3.4234 -3.4694 -29.681 -10.7925 -0.134441 -4.20577 35.6422 -15.1214 5.82328 9.61819 -0.917488 1.58691 -5.7743 -5.71455 0.277363 0.419755 -4.39916 1.31294 12.7381 -15.8318 2.09544 -14.1921 -0.0938836 0.0462048 0.000530889 0.662642 
189.056 102.629 2.58728 -3.5886 -0.0521136 -85.8717 0.599873 -2.62096 -0.211894 1.93111 14.937 13.3196 -4.2368 -11.9103 -0.111176 -1.37632e-009 8.75206e-006 -1.48048e-008 0.680571 10.6911 -0.488632 0.542035 -2.65169 -0.386343 37.2116 1.77182 0.0843803 40.0546 -11.7686 5.04105 5.61312 29.5561 14.1519 -11.2603 9.22709 2.0278 -42.928 3.46493 -3.50242 -29.5495 -10.5079 -0.332999 -3.98037 35.4079 -15.4356 5.82328 9.61819 -0.917488 1.94359 -5.74786 -5.45746 0.258235 0.46445 -4.44632 1.36457 12.7037 -15.9297 2.05601 -14.1823 -0.0938796 0.0462048 0.000530889 0.662642 
189.092 102.629 2.55309 -3.62359 -0.0836003 -85.7619 0.586767 -2.59446 -0.226498 1.95019 14.8874 13.2116 -4.27835 -11.8665 -0.11163 -1.37632e-009 8.75206e-006 -1.48048e-008 0.571851 10.5435 -0.480335 0.730917 -2.33593 -0.417898 37.0754 1.76887 0.0864262 40.1313 -12.0329 5.0636 5.79536 29.3161 13.9567 -11.8497 9.26208 1.255 -43.1591 3.49492 -3.5272 -29.4366 -10.2331 -0.548121 -3.83972 35.1943 -15.652 5.82328 9.61819 -0.917488 2.25918 -5.73246 -5.39253 0.206199 0.493653 -4.53828 1.45379 12.7066 -15.9611 2.00771 -14.2087 -0.0938905 0.0462048 0.000530889 0.662642 
189.137 102.625 2.52886 -3.64778 -0.116995 -85.6906 0.554726 -2.59809 -0.28504 1.97483 14.8793 13.1872 -4.33341 -11.8483 -0.111988 -1.37632e-009 8.75206e-006 -1.48048e-008 0.662658 10.5162 -0.517372 0.577058 -2.23229 -0.425339 37.214 1.76737 0.0747856 40.0093 -12.0936 5.00845 6.02795 28.8811 13.7752 -12.579 9.27868 0.657098 -43.0763 3.48832 -3.52822 -29.5517 -9.96326 -0.692068 -3.79871 34.9216 -15.7693 5.82328 9.61819 -0.917488 2.09829 -6.1055 -5.77929 0.154715 0.47759 -4.60939 1.512 12.7615 -15.9723 2.00663 -14.2534 -0.0939091 0.0462048 0.000530889 0.662642 
189.201 102.618 2.51623 -3.65231 -0.132503 -85.6554 0.536764 -2.66567 -0.353373 1.98389 14.9462 13.2085 -4.39343 -11.8699 -0.112321 -1.37632e-009 8.75206e-006 -1.48048e-008 0.740859 10.546 -0.554359 0.459971 -2.22623 -0.438597 37.3666 1.76614 0.0623341 39.8743 -12.2182 5.00781 6.11981 29.2696 13.5548 -12.7313 9.23036 1.06517 -42.9231 3.4742 -3.52865 -29.7662 -9.59792 -0.782341 -3.70931 34.489 -15.9766 5.82328 9.61819 -0.917488 1.89926 -6.32645 -5.8648 0.136218 0.406559 -4.62292 1.52232 12.8468 -16.0036 2.04773 -14.284 -0.0939219 0.0462048 0.000530889 0.662642 
189.27 102.607 2.51006 -3.65 -0.115755 -85.6461 0.544838 -2.77325 -0.43285 1.99117 15.0743 13.2679 -4.43962 -11.9213 -0.112692 -1.37632e-009 8.75206e-006 -1.48048e-008 0.742152 10.6741 -0.561452 0.538247 -2.38741 -0.458238 37.3645 1.76517 0.0594399 39.7995 -12.5537 4.96781 6.06841 30.3377 13.3202 -12.3182 9.16693 1.94093 -42.9521 3.47836 -3.52824 -29.8341 -9.04564 -0.786145 -3.48608 33.8313 -16.3893 5.82328 9.61819 -0.917488 1.71799 -6.35184 -5.84545 0.147126 0.319792 -4.61616 1.5338 12.9285 -16.0282 2.07498 -14.2971 -0.0939273 0.0462048 0.000530889 0.662642 
189.329 102.593 2.50361 -3.67582 -0.0756871 -85.6431 0.573291 -2.8583 -0.523636 2.00741 15.2268 13.3448 -4.46295 -11.983 -0.113151 -1.37632e-009 8.75206e-006 -1.48048e-008 0.75936 10.9012 -0.554967 0.647273 -2.70151 -0.466735 37.3215 1.76443 0.0617619 39.6984 -13.0729 4.81136 6.14402 30.9619 13.0227 -12.1629 9.15226 2.19641 -43.0841 3.48931 -3.52738 -29.7612 -8.46872 -0.732131 -3.25506 33.1681 -16.8168 5.82328 9.61819 -0.917488 1.70615 -6.03319 -5.89939 0.170032 0.281475 -4.63202 1.57656 12.9846 -16.0225 2.05803 -14.3065 -0.0939313 0.0462048 0.000530889 0.662642 
189.38 102.579 2.49802 -3.73982 -0.0336896 -85.6471 0.61368 -2.90212 -0.598027 2.01555 15.3883 13.4079 -4.47605 -12.0462 -0.113633 -1.37632e-009 8.75206e-006 -1.48048e-008 0.759063 10.991 -0.545544 0.769115 -2.76939 -0.474748 37.2672 1.76391 0.0667024 39.63 -13.6707 4.74534 6.46071 30.8217 12.606 -12.6406 9.15705 1.83708 -43.2096 3.5003 -3.53035 -29.6802 -8.10471 -0.773635 -3.13693 32.7981 -17.0478 5.82328 9.61819 -0.917488 1.86428 -5.61964 -6.04439 0.19477 0.292387 -4.66228 1.62501 13.0352 -15.9977 2.02715 -14.3226 -0.093938 0.0462048 0.000530889 0.662642 
189.435 102.563 2.50037 -3.81058 -0.00757908 -85.6883 0.643852 -2.93728 -0.648102 2.00474 15.5531 13.4836 -4.49348 -12.1041 -0.114089 -1.37632e-009 8.75206e-006 -1.48048e-008 0.606275 10.7733 -0.522936 1.07844 -2.33335 -0.512472 37.0459 1.76358 0.0819042 39.7675 -14.196 4.9485 6.74739 30.7489 12.2129 -13.146 9.14322 1.66406 -43.4333 3.53069 -3.55675 -29.5547 -7.88626 -0.944616 -3.0659 32.6117 -17.1803 5.82328 9.61819 -0.917488 2.23466 -5.29685 -5.82016 0.210172 0.280804 -4.67698 1.64218 13.135 -15.9537 2.02719 -14.3551 -0.0939516 0.0462048 0.000530889 0.662642 
189.495 102.546 2.50508 -3.86527 -0.0033375 -85.7719 0.642877 -2.97395 -0.692497 1.98877 15.6961 13.6043 -4.51423 -12.1457 -0.114504 -1.37632e-009 8.75206e-006 -1.48048e-008 0.351344 10.4738 -0.498939 1.50496 -1.78481 -0.578042 36.7065 1.76341 0.107277 40.0181 -14.4838 5.20559 6.76706 31.1196 12.0641 -13.1597 9.13394 1.74478 -43.7833 3.58007 -3.60113 -29.3033 -7.59498 -1.06001 -2.95774 32.2748 -17.3929 5.82328 9.61819 -0.917488 2.5096 -5.23437 -5.30052 0.2119 0.214625 -4.66295 1.61645 13.2983 -15.888 2.05973 -14.4051 -0.0932969 0.0462048 0.000530889 0.662642 
189.545 102.532 2.50784 -3.92061 -0.00923017 -85.8539 0.63139 -2.98252 -0.716291 1.97646 15.7964 13.709 -4.52763 -12.1715 -0.11487 -1.37632e-009 8.75206e-006 -1.48048e-008 0.213595 10.4033 -0.501213 1.71437 -1.62349 -0.625644 36.5637 1.7634 0.125481 40.0769 -14.505 5.208 6.65184 31.2849 12.1566 -13.0453 9.15931 1.57136 -44.0125 3.60904 -3.62309 -29.0628 -7.33034 -1.02467 -2.88921 31.8707 -17.5777 5.82328 9.61819 -0.917488 2.21553 -5.51552 -5.10601 0.215989 0.154553 -4.62923 1.56791 13.4621 -15.8307 2.08754 -14.4519 -0.0909474 0.0462048 0.000530889 0.662642 
